<svg width="81" height="16" fill="none" xmlns="http://www.w3.org/2000/svg"><path d="M.49 15v-2.188l.412-.02c.559-.034 1.001-.235 1.328-.604.332-.37.575-.964.732-1.783.16-.82.267-1.918.32-3.296l.24-6.654h9.532V15h-2.578V2.62H5.98l-.227 5.306c-.066 1.591-.242 2.91-.526 3.956-.28 1.046-.738 1.828-1.378 2.344-.634.516-1.517.774-2.649.774H.49zm20.082.213c-1.066 0-1.989-.234-2.77-.703a4.774 4.774 0 01-1.818-1.967c-.427-.843-.64-1.828-.64-2.955s.213-2.114.64-2.962a4.764 4.764 0 011.818-1.974c.781-.469 1.704-.703 2.77-.703 1.065 0 1.988.234 2.77.703a4.718 4.718 0 011.81 1.974c.432.848.647 1.835.647 2.962 0 1.127-.215 2.112-.646 2.955a4.727 4.727 0 01-1.811 1.967c-.782.469-1.705.703-2.77.703zm.014-2.06c.578 0 1.06-.158 1.449-.475.388-.322.677-.753.866-1.293.194-.54.291-1.141.291-1.804a5.35 5.35 0 00-.29-1.811c-.19-.545-.479-.978-.867-1.3-.389-.322-.871-.483-1.45-.483-.59 0-1.083.161-1.476.483-.389.322-.68.755-.874 1.3a5.444 5.444 0 00-.284 1.811c0 .663.095 1.264.284 1.804.194.54.485.97.874 1.293.393.317.885.475 1.477.475zm14.611-9.062V6.2h-4.702V15h-2.514V4.09h7.216zm6.37 11.122c-1.065 0-1.988-.234-2.77-.703a4.774 4.774 0 01-1.817-1.967c-.426-.843-.64-1.828-.64-2.955s.214-2.114.64-2.962a4.764 4.764 0 011.818-1.974c.781-.469 1.704-.703 2.77-.703 1.065 0 1.989.234 2.77.703a4.718 4.718 0 011.81 1.974c.432.848.647 1.835.647 2.962 0 1.127-.215 2.112-.646 2.955a4.727 4.727 0 01-1.811 1.967c-.782.469-1.705.703-2.77.703zm.015-2.06c.578 0 1.06-.158 1.449-.475.388-.322.677-.753.866-1.293a5.28 5.28 0 00.292-1.804 5.3 5.3 0 00-.292-1.811c-.189-.545-.478-.978-.866-1.3-.388-.322-.871-.483-1.449-.483-.592 0-1.084.161-1.477.483-.388.322-.68.755-.874 1.3a5.444 5.444 0 00-.284 1.811c0 .663.095 1.264.284 1.804.194.54.486.97.874 1.293.393.317.885.475 1.477.475zM47.775 6.2V4.09h9.546V6.2h-3.53V15h-2.486V6.2h-3.53zm14.072 5.32l4.367-7.43h2.642V15h-2.485V7.564L62.017 15h-2.65V4.09h2.48v7.43zm9.65 3.48V4.09h9.212V15h-2.48V6.2h-4.275V15h-2.457z" fill="#101010"/></svg>