<svg width="14" height="18" fill="none" xmlns="http://www.w3.org/2000/svg"><path d="M13.648 4.46a9.16 9.16 0 00-.308-.703c-.617-1.279-1.52-2.224-2.708-2.837A8.014 8.014 0 006.912 0C5.239 0 3.727.49 2.377 1.467 1.027 2.446.235 3.822 0 5.596v.743l.044.196v.274c.059.417.213.893.462 1.428.25.535.477.965.683 1.291.205.326.535.822.99 1.487.455.665.756 1.102.903 1.311C3.932 13.604 5.239 15.496 7 18a292.25 292.25 0 002.421-3.678c.06-.079.17-.235.33-.47a3.89 3.89 0 00.33-.548c.06-.078.155-.189.287-.332a4.74 4.74 0 00.286-.333c.206-.339.653-.985 1.343-1.937.69-.952 1.196-1.754 1.519-2.406.323-.653.484-1.292.484-1.918v-.86c0-.288-.117-.64-.352-1.057zM6.956 8.336c-1.145 0-1.937-.496-2.377-1.487a2.888 2.888 0 01-.044-.587v-.509c0-.652.25-1.154.748-1.506.499-.353 1.086-.529 1.761-.529.734 0 1.343.222 1.827.666.484.443.726.99.726 1.643 0 .652-.256 1.2-.77 1.644-.514.443-1.137.665-1.871.665z" fill="#FF574D"/></svg>