<svg width="81" height="16" viewBox="0 0 81 16" fill="none" xmlns="http://www.w3.org/2000/svg">
<path d="M0.490057 15V12.8125L0.901989 12.7912C1.4607 12.758 1.90341 12.5568 2.23011 12.1875C2.56155 11.8182 2.8054 11.224 2.96165 10.4048C3.12263 9.5857 3.22917 8.48722 3.28125 7.10938L3.52273 0.454545H13.054V15H10.4759V2.62074H5.98011L5.75284 7.92614C5.68655 9.51705 5.51136 10.8357 5.22727 11.8821C4.94792 12.9285 4.48864 13.7098 3.84943 14.2259C3.21496 14.742 2.33191 15 1.20028 15H0.490057ZM20.5717 15.2131C19.5064 15.2131 18.5831 14.9787 17.8018 14.5099C17.0206 14.0412 16.4145 13.3854 15.9837 12.5426C15.5575 11.6998 15.3445 10.715 15.3445 9.58807C15.3445 8.46117 15.5575 7.47396 15.9837 6.62642C16.4145 5.77888 17.0206 5.12074 17.8018 4.65199C18.5831 4.18324 19.5064 3.94886 20.5717 3.94886C21.6371 3.94886 22.5604 4.18324 23.3416 4.65199C24.1229 5.12074 24.7266 5.77888 25.1527 6.62642C25.5836 7.47396 25.799 8.46117 25.799 9.58807C25.799 10.715 25.5836 11.6998 25.1527 12.5426C24.7266 13.3854 24.1229 14.0412 23.3416 14.5099C22.5604 14.9787 21.6371 15.2131 20.5717 15.2131ZM20.5859 13.1534C21.1636 13.1534 21.6465 12.9948 22.0348 12.6776C22.4231 12.3556 22.7119 11.9247 22.9013 11.3849C23.0954 10.8452 23.1925 10.2438 23.1925 9.58097C23.1925 8.91335 23.0954 8.30966 22.9013 7.76989C22.7119 7.22538 22.4231 6.79214 22.0348 6.47017C21.6465 6.1482 21.1636 5.98722 20.5859 5.98722C19.9941 5.98722 19.5017 6.1482 19.1087 6.47017C18.7204 6.79214 18.4292 7.22538 18.2351 7.76989C18.0457 8.30966 17.951 8.91335 17.951 9.58097C17.951 10.2438 18.0457 10.8452 18.2351 11.3849C18.4292 11.9247 18.7204 12.3556 19.1087 12.6776C19.5017 12.9948 19.9941 13.1534 20.5859 13.1534ZM35.1971 4.09091V6.20028H30.4954V15H27.9812V4.09091H35.1971ZM41.5678 15.2131C40.5025 15.2131 39.5792 14.9787 38.7979 14.5099C38.0167 14.0412 37.4106 13.3854 36.9798 12.5426C36.5536 11.6998 36.3406 10.715 36.3406 9.58807C36.3406 8.46117 36.5536 7.47396 36.9798 6.62642C37.4106 5.77888 38.0167 5.12074 38.7979 4.65199C39.5792 4.18324 40.5025 3.94886 41.5678 3.94886C42.6332 3.94886 43.5565 4.18324 44.3377 4.65199C45.119 5.12074 45.7227 5.77888 46.1488 6.62642C46.5797 7.47396 46.7951 8.46117 46.7951 9.58807C46.7951 10.715 46.5797 11.6998 46.1488 12.5426C45.7227 13.3854 45.119 14.0412 44.3377 14.5099C43.5565 14.9787 42.6332 15.2131 41.5678 15.2131ZM41.582 13.1534C42.1597 13.1534 42.6426 12.9948 43.0309 12.6776C43.4192 12.3556 43.708 11.9247 43.8974 11.3849C44.0915 10.8452 44.1886 10.2438 44.1886 9.58097C44.1886 8.91335 44.0915 8.30966 43.8974 7.76989C43.708 7.22538 43.4192 6.79214 43.0309 6.47017C42.6426 6.1482 42.1597 5.98722 41.582 5.98722C40.9902 5.98722 40.4978 6.1482 40.1048 6.47017C39.7165 6.79214 39.4253 7.22538 39.2312 7.76989C39.0418 8.30966 38.9471 8.91335 38.9471 9.58097C38.9471 10.2438 39.0418 10.8452 39.2312 11.3849C39.4253 11.9247 39.7165 12.3556 40.1048 12.6776C40.4978 12.9948 40.9902 13.1534 41.582 13.1534ZM47.7752 6.20028V4.09091H57.3207V6.20028H53.7908V15H51.305V6.20028H47.7752ZM61.8466 11.5199L66.2145 4.09091H68.8565V15H66.3707V7.56392L62.017 15H59.3679V4.09091H61.8466V11.5199ZM71.4968 15V4.09091H80.7085V15H78.2298V6.20028H73.9542V15H71.4968Z" fill="#101010"/>
</svg>
