<?xml version="1.0" encoding="utf-8"?><svg viewBox="0 0 19 18" xmlns="http://www.w3.org/2000/svg" xmlns:xlink="http://www.w3.org/1999/xlink"><style>:root>svg{display:none}:root>svg:target{display:block}</style><svg viewBox="0 0 12 8" id="icon-chevron" xmlns="http://www.w3.org/2000/svg"><path d="M1 1.5l5 5 5-5"/></svg><svg viewBox="0 0 14 18" id="icon-marker" xmlns="http://www.w3.org/2000/svg"><path d="M13.648 4.46a9.16 9.16 0 00-.308-.703c-.617-1.279-1.52-2.224-2.708-2.837A8.014 8.014 0 006.912 0C5.239 0 3.727.49 2.377 1.467 1.027 2.446.235 3.822 0 5.596v.743l.044.196v.274c.059.417.213.893.462 1.428.25.535.477.965.683 1.291.205.326.535.822.99 1.487.455.665.756 1.102.903 1.311C3.932 13.604 5.239 15.496 7 18c.235-.34 1.042-1.565 2.421-3.678.06-.079.17-.235.33-.47a3.89 3.89 0 00.33-.548c.06-.078.155-.189.287-.332a4.74 4.74 0 00.286-.333c.206-.339.653-.985 1.343-1.937.69-.952 1.196-1.754 1.519-2.406.323-.653.484-1.292.484-1.918v-.86c0-.288-.117-.64-.352-1.057zM6.956 8.336c-1.145 0-1.937-.496-2.377-1.487a2.888 2.888 0 01-.044-.587v-.509c0-.652.25-1.154.748-1.506.499-.353 1.086-.529 1.761-.529.734 0 1.343.222 1.827.666.484.443.726.99.726 1.643 0 .652-.256 1.2-.77 1.644-.514.443-1.137.665-1.871.665z"/></svg><svg viewBox="0 0 19 15" id="icon-message" xmlns="http://www.w3.org/2000/svg"><path d="M18.5 3.892v8.223c0 .765-.296 1.5-.824 2.04a2.777 2.777 0 01-1.988.845H3.312a2.777 2.777 0 01-1.988-.845 2.923 2.923 0 01-.824-2.04V3.892l8.714 5.26a.552.552 0 00.572 0l8.714-5.26zM15.687 0c.693 0 1.36.261 1.876.735a2.91 2.91 0 01.92 1.83L9.5 7.985.517 2.565a2.91 2.91 0 01.92-1.83A2.773 2.773 0 013.312 0h12.376z"/></svg><svg viewBox="0 0 18 18" id="icon-phone" xmlns="http://www.w3.org/2000/svg"><path d="M17.75 14.968l-2.538 2.517c-.374.384-.871.514-1.355.515-2.138-.064-4.16-1.115-5.82-2.193-2.724-1.982-5.223-4.44-6.792-7.41C.643 7.152-.063 5.563.005 4.173.01 3.65.15 3.137.52 2.8L3.057.263c.527-.448 1.037-.293 1.374.23l2.042 3.87c.215.46.092.95-.229 1.279l-.935.934a.46.46 0 00-.095.267c.358 1.388 1.444 2.667 2.404 3.547.96.88 1.99 2.073 3.33 2.356.165.046.368.062.486-.048l1.088-1.106c.375-.284.916-.423 1.316-.19h.02l3.682 2.173c.54.34.597.994.21 1.393z"/></svg></svg>