<?xml version="1.0" encoding="utf-8"?><svg viewBox="0 0 49 32" xmlns="http://www.w3.org/2000/svg" xmlns:xlink="http://www.w3.org/1999/xlink"><style>:root>svg{display:none}:root>svg:target{display:block}</style><svg viewBox="0 0 49 16" id="icon-arrow" xmlns="http://www.w3.org/2000/svg"><path d="M.293 7.293a1 1 0 000 1.414l6.364 6.364a1 1 0 001.414-1.414L2.414 8l5.657-5.657A1 1 0 006.657.93L.293 7.293zM49 7H1v2h48V7z"/></svg><svg viewBox="0 0 12 8" id="icon-chevron" xmlns="http://www.w3.org/2000/svg"><path d="M1 1.5l5 5 5-5"/></svg><svg viewBox="0 0 32 32" id="icon-facebook" xmlns="http://www.w3.org/2000/svg"><path d="M5.843 0A5.83 5.83 0 000 5.843v20.314A5.83 5.83 0 005.843 32h11.01V19.49h-3.308v-4.504h3.308v-3.848c0-3.023 1.955-5.799 6.457-5.799 1.823 0 3.171.175 3.171.175l-.106 4.206S25 9.707 23.5 9.707c-1.624 0-1.884.748-1.884 1.99v3.289h4.888l-.213 4.504h-4.675V32h4.541A5.83 5.83 0 0032 26.157V5.843A5.83 5.83 0 0026.157 0H5.843z"/></svg><svg viewBox="0 0 32 32" id="icon-instagram" xmlns="http://www.w3.org/2000/svg"><path d="M15.996 10.664A5.347 5.347 0 0010.66 16a5.347 5.347 0 005.336 5.336A5.347 5.347 0 0021.33 16a5.347 5.347 0 00-5.335-5.336zM31.998 16c0-2.21.02-4.399-.104-6.604-.124-2.562-.708-4.836-2.582-6.709C27.435.81 25.166.229 22.604.105 20.394-.019 18.205.001 16 .001c-2.21 0-4.4-.02-6.605.104C6.834.23 4.56.814 2.687 2.687.81 4.564.229 6.834.105 9.396-.019 11.605.001 13.794.001 16c0 2.206-.02 4.399.104 6.605.124 2.561.709 4.835 2.582 6.708 1.877 1.877 4.147 2.458 6.708 2.582 2.21.124 4.4.104 6.605.104 2.21 0 4.399.02 6.604-.104 2.562-.124 4.835-.709 6.708-2.582 1.878-1.877 2.458-4.147 2.582-6.708.128-2.206.104-4.396.104-6.605zm-16.002 8.21A8.198 8.198 0 017.786 16a8.198 8.198 0 018.21-8.21 8.198 8.198 0 018.21 8.21 8.198 8.198 0 01-8.21 8.21zM24.54 9.371a1.915 1.915 0 01-1.917-1.918c0-1.06.857-1.917 1.917-1.917a1.915 1.915 0 011.772 2.651 1.916 1.916 0 01-1.772 1.184z"/></svg><svg viewBox="0 0 14 18" id="icon-marker" xmlns="http://www.w3.org/2000/svg"><path d="M13.648 4.46a9.16 9.16 0 00-.308-.703c-.617-1.279-1.52-2.224-2.708-2.837A8.014 8.014 0 006.912 0C5.239 0 3.727.49 2.377 1.467 1.027 2.446.235 3.822 0 5.596v.743l.044.196v.274c.059.417.213.893.462 1.428.25.535.477.965.683 1.291.205.326.535.822.99 1.487.455.665.756 1.102.903 1.311C3.932 13.604 5.239 15.496 7 18c.235-.34 1.042-1.565 2.421-3.678.06-.079.17-.235.33-.47a3.89 3.89 0 00.33-.548c.06-.078.155-.189.287-.332a4.74 4.74 0 00.286-.333c.206-.339.653-.985 1.343-1.937.69-.952 1.196-1.754 1.519-2.406.323-.653.484-1.292.484-1.918v-.86c0-.288-.117-.64-.352-1.057zM6.956 8.336c-1.145 0-1.937-.496-2.377-1.487a2.888 2.888 0 01-.044-.587v-.509c0-.652.25-1.154.748-1.506.499-.353 1.086-.529 1.761-.529.734 0 1.343.222 1.827.666.484.443.726.99.726 1.643 0 .652-.256 1.2-.77 1.644-.514.443-1.137.665-1.871.665z"/></svg><svg viewBox="0 0 19 15" id="icon-message" xmlns="http://www.w3.org/2000/svg"><path d="M18.5 3.892v8.223c0 .765-.296 1.5-.824 2.04a2.777 2.777 0 01-1.988.845H3.312a2.777 2.777 0 01-1.988-.845 2.923 2.923 0 01-.824-2.04V3.892l8.714 5.26a.552.552 0 00.572 0l8.714-5.26zM15.687 0c.693 0 1.36.261 1.876.735a2.91 2.91 0 01.92 1.83L9.5 7.985.517 2.565a2.91 2.91 0 01.92-1.83A2.773 2.773 0 013.312 0h12.376z"/></svg><svg viewBox="0 0 18 18" id="icon-phone" xmlns="http://www.w3.org/2000/svg"><path d="M17.75 14.968l-2.538 2.517c-.374.384-.871.514-1.355.515-2.138-.064-4.16-1.115-5.82-2.193-2.724-1.982-5.223-4.44-6.792-7.41C.643 7.152-.063 5.563.005 4.173.01 3.65.15 3.137.52 2.8L3.057.263c.527-.448 1.037-.293 1.374.23l2.042 3.87c.215.46.092.95-.229 1.279l-.935.934a.46.46 0 00-.095.267c.358 1.388 1.444 2.667 2.404 3.547.96.88 1.99 2.073 3.33 2.356.165.046.368.062.486-.048l1.088-1.106c.375-.284.916-.423 1.316-.19h.02l3.682 2.173c.54.34.597.994.21 1.393z"/></svg><svg viewBox="0 0 32 32" id="icon-vk" xmlns="http://www.w3.org/2000/svg"><path d="M20.911 0H11.09C2.125 0 0 2.125 0 11.089v9.822C0 29.875 2.125 32 11.089 32h9.822C29.875 32 32 29.875 32 20.911V11.09C32 2.125 29.854 0 20.911 0zm4.922 22.827H23.51c-.88 0-1.15-.698-2.734-2.302-1.375-1.333-1.984-1.51-2.323-1.51-.479 0-.615.135-.615.792v2.1c0 .562-.177.9-1.666.9-2.464 0-5.198-1.49-7.115-4.266-2.891-4.068-3.682-7.114-3.682-7.744 0-.34.135-.656.786-.656h2.328c.589 0 .813.27 1.042.9 1.15 3.324 3.068 6.235 3.859 6.235.292 0 .427-.136.427-.88v-3.432c-.09-1.583-.922-1.72-.922-2.281 0-.271.224-.542.583-.542h3.66c.495 0 .677.27.677.854v4.63c0 .5.224.677.36.677.291 0 .541-.177 1.082-.72 1.672-1.874 2.87-4.765 2.87-4.765.156-.34.427-.656 1.016-.656h2.328c.698 0 .854.359.698.859-.292 1.354-3.14 5.375-3.14 5.375-.246.405-.34.582 0 1.035.25.34 1.062 1.042 1.603 1.672.995 1.13 1.76 2.078 1.964 2.734.23.651-.109.99-.766.99l.003.001z"/></svg></svg>